<mxfile host="app.diagrams.net" agent="Mozilla/5.0 (Macintosh; Intel Mac OS X 10.15; rv:141.0) Gecko/20100101 Firefox/141.0" version="28.1.1">
  <diagram name="Page-1" id="L12UkV5qWLtezwTMcRqp">
    <mxGraphModel dx="437" dy="691" grid="1" gridSize="10" guides="1" tooltips="1" connect="1" arrows="1" fold="1" page="1" pageScale="1" pageWidth="850" pageHeight="1100" math="0" shadow="0">
      <root>
        <mxCell id="0" />
        <mxCell id="1" parent="0" />
        <mxCell id="Jjno_MXi55rqT0IsXYwj-8" value="" style="verticalLabelPosition=bottom;verticalAlign=top;html=1;shape=mxgraph.flowchart.on-page_reference;" vertex="1" parent="1">
          <mxGeometry x="40" y="200" width="80" height="80" as="geometry" />
        </mxCell>
        <mxCell id="Jjno_MXi55rqT0IsXYwj-9" value="Input&amp;nbsp;" style="text;strokeColor=none;fillColor=none;html=1;align=center;verticalAlign=middle;whiteSpace=wrap;rounded=0;fontSize=16;" vertex="1" parent="1">
          <mxGeometry x="50" y="225" width="60" height="30" as="geometry" />
        </mxCell>
        <mxCell id="Jjno_MXi55rqT0IsXYwj-13" value="" style="verticalLabelPosition=bottom;verticalAlign=top;html=1;shape=mxgraph.flowchart.on-page_reference;" vertex="1" parent="1">
          <mxGeometry x="320" y="200" width="80" height="80" as="geometry" />
        </mxCell>
        <mxCell id="Jjno_MXi55rqT0IsXYwj-14" value="Output" style="text;strokeColor=none;fillColor=none;html=1;align=center;verticalAlign=middle;whiteSpace=wrap;rounded=0;fontSize=16;" vertex="1" parent="1">
          <mxGeometry x="330" y="225" width="60" height="30" as="geometry" />
        </mxCell>
        <mxCell id="Jjno_MXi55rqT0IsXYwj-15" value="" style="endArrow=block;dashed=1;endFill=0;endSize=12;html=1;rounded=0;fontSize=12;curved=1;exitX=1;exitY=0.5;exitDx=0;exitDy=0;exitPerimeter=0;" edge="1" parent="1" source="Jjno_MXi55rqT0IsXYwj-8">
          <mxGeometry width="160" relative="1" as="geometry">
            <mxPoint x="130" y="240" as="sourcePoint" />
            <mxPoint x="320" y="240" as="targetPoint" />
            <Array as="points" />
          </mxGeometry>
        </mxCell>
        <mxCell id="Jjno_MXi55rqT0IsXYwj-19" value="" style="shape=ext;double=1;rounded=1;whiteSpace=wrap;html=1;arcSize=50;" vertex="1" parent="1">
          <mxGeometry x="160" y="250" width="80" height="40" as="geometry" />
        </mxCell>
        <mxCell id="Jjno_MXi55rqT0IsXYwj-20" value="Process" style="text;strokeColor=none;fillColor=none;html=1;align=center;verticalAlign=middle;whiteSpace=wrap;rounded=0;fontSize=16;" vertex="1" parent="1">
          <mxGeometry x="170" y="255" width="60" height="30" as="geometry" />
        </mxCell>
        <mxCell id="Jjno_MXi55rqT0IsXYwj-24" value="Table" style="shape=table;startSize=30;container=1;collapsible=0;childLayout=tableLayout;strokeColor=default;fontSize=16;" vertex="1" parent="1">
          <mxGeometry x="40" y="320" width="400" height="440" as="geometry" />
        </mxCell>
        <mxCell id="Jjno_MXi55rqT0IsXYwj-25" value="" style="shape=tableRow;horizontal=0;startSize=0;swimlaneHead=0;swimlaneBody=0;strokeColor=inherit;top=0;left=0;bottom=0;right=0;collapsible=0;dropTarget=0;fillColor=none;points=[[0,0.5],[1,0.5]];portConstraint=eastwest;fontSize=16;" vertex="1" parent="Jjno_MXi55rqT0IsXYwj-24">
          <mxGeometry y="30" width="400" height="136" as="geometry" />
        </mxCell>
        <mxCell id="Jjno_MXi55rqT0IsXYwj-26" value="" style="shape=partialRectangle;html=1;whiteSpace=wrap;connectable=0;strokeColor=inherit;overflow=hidden;fillColor=none;top=0;left=0;bottom=0;right=0;pointerEvents=1;fontSize=16;" vertex="1" parent="Jjno_MXi55rqT0IsXYwj-25">
          <mxGeometry width="133" height="136" as="geometry">
            <mxRectangle width="133" height="136" as="alternateBounds" />
          </mxGeometry>
        </mxCell>
        <mxCell id="Jjno_MXi55rqT0IsXYwj-27" value="" style="shape=partialRectangle;html=1;whiteSpace=wrap;connectable=0;strokeColor=inherit;overflow=hidden;fillColor=none;top=0;left=0;bottom=0;right=0;pointerEvents=1;fontSize=16;" vertex="1" parent="Jjno_MXi55rqT0IsXYwj-25">
          <mxGeometry x="133" width="134" height="136" as="geometry">
            <mxRectangle width="134" height="136" as="alternateBounds" />
          </mxGeometry>
        </mxCell>
        <mxCell id="Jjno_MXi55rqT0IsXYwj-28" value="" style="shape=partialRectangle;html=1;whiteSpace=wrap;connectable=0;strokeColor=inherit;overflow=hidden;fillColor=none;top=0;left=0;bottom=0;right=0;pointerEvents=1;fontSize=16;" vertex="1" parent="Jjno_MXi55rqT0IsXYwj-25">
          <mxGeometry x="267" width="133" height="136" as="geometry">
            <mxRectangle width="133" height="136" as="alternateBounds" />
          </mxGeometry>
        </mxCell>
        <mxCell id="Jjno_MXi55rqT0IsXYwj-29" value="" style="shape=tableRow;horizontal=0;startSize=0;swimlaneHead=0;swimlaneBody=0;strokeColor=inherit;top=0;left=0;bottom=0;right=0;collapsible=0;dropTarget=0;fillColor=none;points=[[0,0.5],[1,0.5]];portConstraint=eastwest;fontSize=16;" vertex="1" parent="Jjno_MXi55rqT0IsXYwj-24">
          <mxGeometry y="166" width="400" height="138" as="geometry" />
        </mxCell>
        <mxCell id="Jjno_MXi55rqT0IsXYwj-30" value="" style="shape=partialRectangle;html=1;whiteSpace=wrap;connectable=0;strokeColor=inherit;overflow=hidden;fillColor=none;top=0;left=0;bottom=0;right=0;pointerEvents=1;fontSize=16;" vertex="1" parent="Jjno_MXi55rqT0IsXYwj-29">
          <mxGeometry width="133" height="138" as="geometry">
            <mxRectangle width="133" height="138" as="alternateBounds" />
          </mxGeometry>
        </mxCell>
        <mxCell id="Jjno_MXi55rqT0IsXYwj-31" value="" style="shape=partialRectangle;html=1;whiteSpace=wrap;connectable=0;strokeColor=inherit;overflow=hidden;fillColor=none;top=0;left=0;bottom=0;right=0;pointerEvents=1;fontSize=16;" vertex="1" parent="Jjno_MXi55rqT0IsXYwj-29">
          <mxGeometry x="133" width="134" height="138" as="geometry">
            <mxRectangle width="134" height="138" as="alternateBounds" />
          </mxGeometry>
        </mxCell>
        <mxCell id="Jjno_MXi55rqT0IsXYwj-32" value="" style="shape=partialRectangle;html=1;whiteSpace=wrap;connectable=0;strokeColor=inherit;overflow=hidden;fillColor=none;top=0;left=0;bottom=0;right=0;pointerEvents=1;fontSize=16;" vertex="1" parent="Jjno_MXi55rqT0IsXYwj-29">
          <mxGeometry x="267" width="133" height="138" as="geometry">
            <mxRectangle width="133" height="138" as="alternateBounds" />
          </mxGeometry>
        </mxCell>
        <mxCell id="Jjno_MXi55rqT0IsXYwj-33" value="" style="shape=tableRow;horizontal=0;startSize=0;swimlaneHead=0;swimlaneBody=0;strokeColor=inherit;top=0;left=0;bottom=0;right=0;collapsible=0;dropTarget=0;fillColor=none;points=[[0,0.5],[1,0.5]];portConstraint=eastwest;fontSize=16;" vertex="1" parent="Jjno_MXi55rqT0IsXYwj-24">
          <mxGeometry y="304" width="400" height="136" as="geometry" />
        </mxCell>
        <mxCell id="Jjno_MXi55rqT0IsXYwj-34" value="" style="shape=partialRectangle;html=1;whiteSpace=wrap;connectable=0;strokeColor=inherit;overflow=hidden;fillColor=none;top=0;left=0;bottom=0;right=0;pointerEvents=1;fontSize=16;" vertex="1" parent="Jjno_MXi55rqT0IsXYwj-33">
          <mxGeometry width="133" height="136" as="geometry">
            <mxRectangle width="133" height="136" as="alternateBounds" />
          </mxGeometry>
        </mxCell>
        <mxCell id="Jjno_MXi55rqT0IsXYwj-35" value="" style="shape=partialRectangle;html=1;whiteSpace=wrap;connectable=0;strokeColor=inherit;overflow=hidden;fillColor=none;top=0;left=0;bottom=0;right=0;pointerEvents=1;fontSize=16;" vertex="1" parent="Jjno_MXi55rqT0IsXYwj-33">
          <mxGeometry x="133" width="134" height="136" as="geometry">
            <mxRectangle width="134" height="136" as="alternateBounds" />
          </mxGeometry>
        </mxCell>
        <mxCell id="Jjno_MXi55rqT0IsXYwj-36" value="" style="shape=partialRectangle;html=1;whiteSpace=wrap;connectable=0;strokeColor=inherit;overflow=hidden;fillColor=none;top=0;left=0;bottom=0;right=0;pointerEvents=1;fontSize=16;" vertex="1" parent="Jjno_MXi55rqT0IsXYwj-33">
          <mxGeometry x="267" width="133" height="136" as="geometry">
            <mxRectangle width="133" height="136" as="alternateBounds" />
          </mxGeometry>
        </mxCell>
        <mxCell id="Jjno_MXi55rqT0IsXYwj-38" value="&lt;ul&gt;&lt;li&gt;Value 1&lt;/li&gt;&lt;li&gt;Value 2&lt;/li&gt;&lt;li&gt;Value 3&lt;/li&gt;&lt;/ul&gt;" style="text;strokeColor=none;fillColor=none;html=1;whiteSpace=wrap;verticalAlign=middle;overflow=hidden;" vertex="1" parent="1">
          <mxGeometry x="50" y="370" width="110" height="100" as="geometry" />
        </mxCell>
        <mxCell id="Jjno_MXi55rqT0IsXYwj-39" value="&lt;ol&gt;&lt;li&gt;Value 1&lt;/li&gt;&lt;li&gt;Value 2&lt;/li&gt;&lt;li&gt;Value 3&lt;/li&gt;&lt;/ol&gt;" style="text;strokeColor=none;fillColor=none;html=1;whiteSpace=wrap;verticalAlign=middle;overflow=hidden;" vertex="1" parent="1">
          <mxGeometry x="190" y="380" width="100" height="80" as="geometry" />
        </mxCell>
        <mxCell id="Jjno_MXi55rqT0IsXYwj-42" value="" style="ellipse;html=1;shape=endState;fillColor=#000000;strokeColor=#ff0000;" vertex="1" parent="1">
          <mxGeometry x="65" y="820" width="30" height="30" as="geometry" />
        </mxCell>
      </root>
    </mxGraphModel>
  </diagram>
</mxfile>
